# xmcd
#
# Track frame offsets: 
#        150
#        12381
#        28449
#        45001
#        59387
#        81043
#        100612
#        121746
#        146775
#        164179
#        197704
#        218803
#
# Disc length: 3016 seconds
#
# Revision: 2
# Processed by: cddbd v1.5.2PL0 Copyright (c) Steve Scherf et al.
# Submitted via: ExactAudioCopy v0.99pb5
#
DISCID=a40bc60c
DTITLE=Cory Branan - 12 Songs
DYEAR=2006
DGENRE=Folk/Rock
TTITLE0=A Girl Named GO
TTITLE1=Mohammed Ali (and me)
TTITLE2=Tall Green Grass
TTITLE3=The Prettiest Waitress in Memphis
TTITLE4=Love Song 11 (secretly enamoured)
TTITLE5=Love Song 7
TTITLE6=The Last Man On Earth
TTITLE7=Sweet Janine
TTITLE8=Hell-bent and Heart-first
TTITLE9=All These Little Cowboys
TTITLE10=Easy
TTITLE11=She's My Rock-n-Roll
EXTD=
EXTT0=
EXTT1=
EXTT2=
EXTT3=
EXTT4=
EXTT5=
EXTT6=
EXTT7=
EXTT8=
EXTT9=
EXTT10=
EXTT11=
PLAYORDER=
